<?xml version="1.0" standalone="no"?>
<!DOCTYPE svg PUBLIC "-//W3C//DTD SVG 20010904//EN"
 "http://www.w3.org/TR/2001/REC-SVG-20010904/DTD/svg10.dtd">
<svg version="1.0" xmlns="http://www.w3.org/2000/svg"
 width="70.000000pt" height="70.000000pt" viewBox="0 0 70.000000 70.000000"
 preserveAspectRatio="xMidYMid meet">
<metadata>
Created by potrace 1.11, written by Peter Selinger 2001-2013
</metadata>
<g transform="translate(0.000000,70.000000) scale(0.100000,-0.100000)"
fill="#000000" stroke="none">
<path d="M272 620 c-45 -44 -82 -84 -82 -90 0 -5 -6 -10 -13 -10 -7 0 -51 -38
-97 -85 l-83 -86 39 -41 c21 -23 54 -55 73 -72 19 -17 65 -60 102 -96 36 -36
84 -82 106 -102 l39 -38 174 170 c103 99 168 169 158 170 -9 0 -41 -25 -71
-55 -30 -30 -57 -55 -61 -55 -3 0 -47 -43 -98 -95 -50 -52 -95 -95 -100 -95
-4 0 -51 43 -103 95 -52 52 -97 95 -99 95 -12 0 -46 35 -46 47 0 7 -5 13 -11
13 -5 0 -24 13 -42 30 l-31 29 75 73 c42 40 100 96 130 123 30 28 61 59 69 70
9 11 25 28 36 38 21 17 23 16 94 -53 51 -49 76 -68 84 -60 7 7 5 10 -7 10 -9
0 -17 4 -17 10 0 5 -22 31 -49 57 -94 93 -76 93 -169 3z"/>
<path d="M316 477 c-110 -60 -109 -95 5 -101 88 -4 129 -14 129 -30 0 -16 -36
-48 -80 -72 -19 -10 -41 -23 -49 -28 -23 -17 -41 -15 -41 5 0 11 17 31 40 47
43 29 50 42 23 42 -42 0 -100 -55 -98 -93 3 -46 26 -62 69 -47 20 6 36 16 36
21 0 5 6 9 14 9 25 0 111 95 110 120 -2 28 -27 48 -68 54 -17 3 -53 9 -81 13
l-50 9 46 27 c55 32 59 33 59 7 0 -11 5 -20 11 -20 18 0 48 40 42 56 -9 23
-54 16 -117 -19z"/>
</g>
</svg>
